<svg xmlns="http://www.w3.org/2000/svg" xmlns:xlink="http://www.w3.org/1999/xlink" version="1.1" viewBox="0 0 24 24" x="0px" y="0px">
  <path fill="black" d="M12 22c-5.523 0-10-4.477-10-10s4.477-10 10-10c5.523 0 10 4.477 10 10s-4.477 10-10 10zM12 4c-4.418 0-8 3.582-8 8s3.582 8 8 8c4.418 0 8-3.582 8-8s-3.582-8-8-8zM16 13h-8c-0.552 0-1-0.448-1-1s0.448-1 1-1h8c0.552 0 1 0.448 1 1s-0.448 1-1 1zM15 10h-7c-0.552 0-1-0.448-1-1s0.448-1 1-1h7c0.552 0 1 0.448 1 1s-0.448 1-1 1zM8 14h7c0.552 0 1 0.448 1 1s-0.448 1-1 1h-7c-0.552 0-1-0.448-1-1s0.448-1 1-1z"/>
</svg>